# xmcd
#
# Track frame offsets:
#  150
#  16036
#  33820
#  58104
#  77768
#  96162
#  110893
#  128129
#  145942
#  162687
#  182311
#  209182
#
# Disc length: 2957 seconds
#
# Revision: 2
# Processed by: cddbd v1.5.1PL0 Copyright (c) Steve Scherf et al.
# Submitted via: Collectorz.com_Music_Collector 6.9
#
DISCID=a60b8b0c
DTITLE=Rusty Zinn - Zinfidelity, Vol. 1
DYEAR=2005
DGENRE=Blues -  Blues Soul
TTITLE0=Talkin' 'Bout You
TTITLE1=Treat You Like A Queen
TTITLE2=Falling In Love Again
TTITLE3=Lucille
TTITLE4=Put Your Hand In Mine
TTITLE5=Get My Hat
TTITLE6=The Real Stuff
TTITLE7=A Life I Used To Know
TTITLE8=Ain't That Some Shame
TTITLE9=In My Dreams
TTITLE10=Zinn Bootyism
TTITLE11=Love Him Or Leave Him
EXTD=
EXTT0=
EXTT1=
EXTT2=
EXTT3=
EXTT4=
EXTT5=
EXTT6=
EXTT7=
EXTT8=
EXTT9=
EXTT10=
EXTT11=
PLAYORDER=
